<svg version="1.1" id="Layer_1" xmlns="http://www.w3.org/2000/svg" xmlns:xlink="http://www.w3.org/1999/xlink" x="0px" y="0px"
	 width="100%" viewBox="0 0 96 96" enable-background="new 0 0 96 96" xml:space="preserve">
<path fill="#FEFEFF" opacity="1.000000" stroke="none" 
	d="
M53.000000,97.000000 
	C35.333336,97.000000 18.166674,97.000000 1.000007,97.000000 
	C1.000005,65.000008 1.000005,33.000019 1.000002,1.000020 
	C32.999985,1.000013 64.999969,1.000013 96.999969,1.000007 
	C96.999977,32.999981 96.999977,64.999962 96.999985,96.999969 
	C82.500000,97.000000 68.000000,97.000000 53.000000,97.000000 
M17.383827,51.239124 
	C17.672087,54.826427 17.960348,58.413734 18.339603,62.668884 
	C23.104431,71.626862 32.094814,72.713142 38.272270,64.647385 
	C42.280830,59.413506 45.423916,53.516773 49.553642,48.273876 
	C52.317104,52.629684 55.080563,56.985493 57.983467,61.993137 
	C58.898651,63.165668 59.737045,64.409157 60.743011,65.497803 
	C64.140808,69.174866 68.120567,71.114288 73.202438,69.305344 
	C78.043129,67.582245 80.066452,63.912487 80.314789,58.771198 
	C80.314789,58.771198 80.130775,58.627079 80.596375,58.241474 
	C80.625893,57.848289 80.655411,57.455101 80.910835,56.194016 
	C80.925018,47.862152 79.218544,40.012081 73.840263,33.408710 
	C67.752571,25.934326 59.496666,25.765642 52.943253,32.793613 
	C51.927639,33.882771 50.994434,35.048775 49.376701,35.936543 
	C45.024075,30.642454 40.090984,26.117680 32.589569,28.060133 
	C25.614477,29.866299 21.877575,35.174175 19.381622,42.376823 
	C18.871109,45.086208 18.360596,47.795589 17.383827,51.239124 
z"/>
<path fill="#0767E1" opacity="1.000000" stroke="none" 
	d="
M19.914478,41.856461 
	C21.877575,35.174175 25.614477,29.866299 32.589569,28.060133 
	C40.090984,26.117680 45.024075,30.642454 49.839745,36.341103 
	C51.231205,37.843044 52.159626,38.940426 53.103016,40.386028 
	C56.755066,46.822460 60.392147,52.910679 63.622833,59.000633 
	C61.425632,59.782013 59.634827,60.561657 57.844025,61.341301 
	C55.080563,56.985493 52.317104,52.629684 49.129242,47.792252 
	C47.763290,45.820442 46.821735,44.330257 45.743057,42.547104 
	C37.560963,31.082369 32.070320,31.567001 25.480509,43.829433 
	C23.413088,43.056442 21.663784,42.456451 19.914478,41.856461 
z"/>
<path fill="#0881FA" opacity="1.000000" stroke="none" 
	d="
M53.088047,40.037811 
	C52.159626,38.940426 51.231205,37.843044 50.162949,36.462448 
	C50.994434,35.048775 51.927639,33.882771 52.943253,32.793613 
	C59.496666,25.765642 67.752571,25.934326 73.840263,33.408710 
	C79.218544,40.012081 80.925018,47.862152 80.617050,56.849266 
	C80.259109,57.878704 80.194939,58.252892 80.130775,58.627079 
	C80.130775,58.627079 80.314789,58.771198 79.827980,58.883881 
	C77.862473,58.986004 76.383781,58.975449 74.881538,58.517429 
	C74.312271,53.482780 74.185265,48.794685 73.110497,44.334995 
	C71.880318,39.230469 69.425888,34.395912 63.678993,33.160694 
	C58.212048,31.985643 56.138638,36.974834 53.088047,40.037811 
z"/>
<path fill="#0983FB" opacity="1.000000" stroke="none" 
	d="
M45.880180,42.840073 
	C46.821735,44.330257 47.763290,45.820442 48.829811,47.613827 
	C45.423916,53.516773 42.280830,59.413506 38.272270,64.647385 
	C32.094814,72.713142 23.104431,71.626862 18.664162,62.275284 
	C20.989780,61.589230 22.990841,61.296776 25.282791,61.219883 
	C29.437748,64.788338 32.325310,62.656937 34.600784,59.492531 
	C38.513317,54.051540 42.135895,48.402050 45.880180,42.840073 
z"/>
<path fill="#0A78EF" opacity="1.000000" stroke="none" 
	d="
M74.905083,58.964890 
	C76.383781,58.975449 77.862473,58.986004 79.787224,58.993408 
	C80.066452,63.912487 78.043129,67.582245 73.202438,69.305344 
	C68.120567,71.114288 64.140808,69.174866 60.743011,65.497803 
	C59.737045,64.409157 58.898651,63.165668 57.913746,61.667221 
	C59.634827,60.561657 61.425632,59.782013 63.916290,59.182686 
	C69.146713,64.616798 71.379623,64.530403 74.905083,58.964890 
z"/>
<path fill="#066FEA" opacity="1.000000" stroke="none" 
	d="
M19.648050,42.116642 
	C21.663784,42.456451 23.413088,43.056442 25.441254,44.203938 
	C25.096020,47.832592 24.471922,50.913742 23.594280,53.776108 
	C22.290524,53.170097 21.179871,52.893501 20.208136,52.362625 
	C19.342262,51.889580 18.630087,51.135201 17.850082,50.504974 
	C18.360596,47.795589 18.871109,45.086208 19.648050,42.116642 
z"/>
<path fill="#097BF3" opacity="1.000000" stroke="none" 
	d="
M17.616955,50.872047 
	C18.630087,51.135201 19.342262,51.889580 20.208136,52.362625 
	C21.179871,52.893501 22.290524,53.170097 23.662558,54.175354 
	C24.320221,56.863697 24.656061,58.934006 24.991901,61.004318 
	C22.990841,61.296776 20.989780,61.589230 18.618664,61.941360 
	C17.960348,58.413734 17.672087,54.826427 17.616955,50.872047 
z"/>
<path fill="#0A78EF" opacity="1.000000" stroke="none" 
	d="
M80.363571,58.434277 
	C80.194939,58.252892 80.259109,57.878704 80.504105,57.283218 
	C80.655411,57.455101 80.625893,57.848289 80.363571,58.434277 
z"/>
<path fill="#FAFCFF" opacity="1.000000" stroke="none" 
	d="
M74.881538,58.517429 
	C71.379623,64.530403 69.146713,64.616798 64.322685,59.180946 
	C60.392147,52.910679 56.755066,46.822460 53.103016,40.386028 
	C56.138638,36.974834 58.212048,31.985643 63.678993,33.160694 
	C69.425888,34.395912 71.880318,39.230469 73.110497,44.334995 
	C74.185265,48.794685 74.312271,53.482780 74.881538,58.517429 
z"/>
<path fill="#FAFCFF" opacity="1.000000" stroke="none" 
	d="
M25.282791,61.219879 
	C24.656061,58.934006 24.320221,56.863697 23.916101,54.394142 
	C24.471922,50.913742 25.096020,47.832592 25.759369,44.376934 
	C32.070320,31.567001 37.560963,31.082369 45.743057,42.547104 
	C42.135895,48.402050 38.513317,54.051540 34.600784,59.492531 
	C32.325310,62.656937 29.437748,64.788338 25.282791,61.219879 
z"/>
</svg>
