<svg xmlns="http://www.w3.org/2000/svg" width="96" height="96" viewBox="0 0 96 96" version="1.1"><path d="M 27 29.250 C 22.790 32.124, 18.319 40.078, 16.877 47.257 C 14.536 58.916, 18.439 67.591, 26.500 68.648 C 32.385 69.419, 36.261 66.289, 42.404 55.801 C 45.207 51.017, 47.725 47.088, 48 47.071 C 48.275 47.053, 50.237 50.008, 52.360 53.638 C 60.056 66.797, 65.989 70.904, 73.064 67.974 C 83.817 63.519, 80.782 36.325, 68.710 28.965 C 62.851 25.392, 55.366 26.996, 51.173 32.722 L 49.139 35.500 45.820 32.370 C 43.994 30.648, 41.517 28.736, 40.316 28.120 C 36.701 26.267, 30.613 26.783, 27 29.250 M 56.629 34.078 C 52.090 37.648, 51.649 39.489, 54.317 43.732 C 64.366 59.715, 65.374 61.056, 67.794 61.663 C 69.742 62.152, 70.794 61.740, 72.287 59.901 C 76.125 55.173, 72.746 39.488, 66.813 34.496 C 63.199 31.455, 60.123 31.329, 56.629 34.078 M 30.607 35.095 C 26.646 38.210, 23.799 44.632, 23.229 51.739 C 22.667 58.740, 24.342 62, 28.500 62 C 31.195 62, 32.370 60.708, 39.350 50.071 L 44.881 41.642 42.862 38.806 C 40.975 36.156, 36.258 33, 34.185 33 C 33.681 33, 32.071 33.943, 30.607 35.095" stroke="none" fill="#0a76f0" fill-rule="evenodd"/><path d="M 0 48.010 L 0 96.019 48.250 95.760 L 96.500 95.500 96.760 47.750 L 97.019 0 48.510 0 L 0 0 0 48.010 M 0.462 48.500 C 0.463 74.900, 0.592 85.556, 0.749 72.181 C 0.907 58.805, 0.907 37.205, 0.749 24.181 C 0.591 11.156, 0.462 22.100, 0.462 48.500 M 27 29.250 C 22.790 32.124, 18.319 40.078, 16.877 47.257 C 14.536 58.916, 18.439 67.591, 26.500 68.648 C 32.385 69.419, 36.261 66.289, 42.404 55.801 C 45.207 51.017, 47.725 47.088, 48 47.071 C 48.275 47.053, 50.237 50.008, 52.360 53.638 C 60.056 66.797, 65.989 70.904, 73.064 67.974 C 83.817 63.519, 80.782 36.325, 68.710 28.965 C 62.851 25.392, 55.366 26.996, 51.173 32.722 L 49.139 35.500 45.820 32.370 C 43.994 30.648, 41.517 28.736, 40.316 28.120 C 36.701 26.267, 30.613 26.783, 27 29.250 M 56.629 34.078 C 52.090 37.648, 51.649 39.489, 54.317 43.732 C 64.366 59.715, 65.374 61.056, 67.794 61.663 C 69.742 62.152, 70.794 61.740, 72.287 59.901 C 76.125 55.173, 72.746 39.488, 66.813 34.496 C 63.199 31.455, 60.123 31.329, 56.629 34.078 M 30.607 35.095 C 26.646 38.210, 23.799 44.632, 23.229 51.739 C 22.667 58.740, 24.342 62, 28.500 62 C 31.195 62, 32.370 60.708, 39.350 50.071 L 44.881 41.642 42.862 38.806 C 40.975 36.156, 36.258 33, 34.185 33 C 33.681 33, 32.071 33.943, 30.607 35.095" stroke="none" fill="#fafbfb" fill-rule="evenodd"/></svg>
